<?xml version="1.0" encoding="iso-8859-1"?>
<!-- Generator: Adobe Illustrator 19.0.0, SVG Export Plug-In . SVG Version: 6.00 Build 0)  -->
<svg version="1.1" id="Capa_1" xmlns="http://www.w3.org/2000/svg" xmlns:xlink="http://www.w3.org/1999/xlink" x="0px" y="0px"
	 viewBox="0 0 512 512" style="" xml:space="preserve" fill="" >
<g>
	<g>
		<path d="M435.2,51.2H384V25.6C384,10.24,373.76,0,358.4,0c-15.36,0-25.6,10.24-25.6,25.6v25.6h-51.2V25.6
			C281.6,10.24,271.36,0,256,0s-25.6,10.24-25.6,25.6v25.6h-51.2V25.6c0-15.36-10.24-25.6-25.6-25.6C138.24,0,128,10.24,128,25.6
			v25.6H76.8c-15.36,0-25.6,10.24-25.6,25.6v409.6c0,15.36,10.24,25.6,25.6,25.6h358.4c15.36,0,25.6-10.24,25.6-25.6V76.8
			C460.8,61.44,450.56,51.2,435.2,51.2z M281.6,409.6H128c-15.36,0-25.6-10.24-25.6-25.6s10.24-25.6,25.6-25.6h153.6
			c15.36,0,25.6,10.24,25.6,25.6S296.96,409.6,281.6,409.6z M384,307.2H128c-15.36,0-25.6-10.24-25.6-25.6
			c0-15.36,10.24-25.6,25.6-25.6h256c15.36,0,25.6,10.24,25.6,25.6C409.6,296.96,399.36,307.2,384,307.2z M384,204.8H128
			c-15.36,0-25.6-10.24-25.6-25.6s10.24-25.6,25.6-25.6h256c15.36,0,25.6,10.24,25.6,25.6S399.36,204.8,384,204.8z"/>
	</g>
</g>
<g>
</g>
<g>
</g>
<g>
</g>
<g>
</g>
<g>
</g>
<g>
</g>
<g>
</g>
<g>
</g>
<g>
</g>
<g>
</g>
<g>
</g>
<g>
</g>
<g>
</g>
<g>
</g>
<g>
</g>
</svg>
