<svg id="Capa_1" enable-background="new 0 0 512 512" height="512" viewBox="0 0 512 512" width="512" xmlns="http://www.w3.org/2000/svg" xmlns:xlink="http://www.w3.org/1999/xlink"><linearGradient id="SVGID_1_" gradientUnits="userSpaceOnUse" x1="256" x2="256" y1="481" y2="31"><stop offset="0" stop-color="#5558ff"/><stop offset="1" stop-color="#00c0ff"/></linearGradient><linearGradient id="SVGID_2_" gradientUnits="userSpaceOnUse" x1="256" x2="256" y1="391" y2="121"><stop offset="0" stop-color="#addcff"/><stop offset=".5028" stop-color="#eaf6ff"/><stop offset="1" stop-color="#eaf6ff"/></linearGradient><g id="Youtube_3_"><g><g><path d="m437 31h-362c-41.353 0-75 33.647-75 75v300c0 41.353 33.647 75 75 75h362c41.353 0 75-33.647 75-75v-300c0-41.353-33.647-75-75-75z" fill="url(#SVGID_1_)"/></g></g><g><g><path d="m377 121h-242c-24.902 0-45 20.099-45 45v180c0 24.899 20.098 45 45 45h242c24.902 0 45-20.101 45-45v-180c0-24.9-20.098-45-45-45zm-69.401 148.5-90 45c-5.528 2.369-10.693 1.713-14.399-.601-4.497-3.001-7.2-7.8-7.2-12.9v-90c0-5.101 2.703-9.901 7.2-12.9 4.501-2.701 9.902-2.701 14.399-.601l90 45c5.101 2.702 8.401 7.802 8.401 13.502s-3.3 10.8-8.401 13.5z" fill="url(#SVGID_2_)"/></g></g></g></svg>